Coordinates
version=1
nRows=8
nColumns=40
inDegrees=yes

Units are S.I. units (second, meters, Newtons, ...)
Angles are in degrees.

endheader
time	pelvis_tilt	pelvis_list	pelvis_rotation	pelvis_tx	pelvis_ty	pelvis_tz	hip_flexion_r	hip_adduction_r	hip_rotation_r	knee_angle_r	knee_angle_r_beta	ankle_angle_r	subtalar_angle_r	mtp_angle_r	hip_flexion_l	hip_adduction_l	hip_rotation_l	knee_angle_l	knee_angle_l_beta	ankle_angle_l	subtalar_angle_l	mtp_angle_l	lumbar_extension	lumbar_bending	lumbar_rotation	arm_flex_r	arm_add_r	arm_rot_r	elbow_flex_r	pro_sup_r	wrist_flex_r	wrist_dev_r	arm_flex_l	arm_add_l	arm_rot_l	elbow_flex_l	pro_sup_l	wrist_flex_l	wrist_dev_l
     34.52864286	     -4.55657940	     -5.79931122	      8.49033860	      1.04567745	      0.92202095	      0.44710271	      2.33694455	      4.83260347	    -18.78994294	     10.63755070	     10.63755070	     14.70180525	      0.44888478	     -7.00263600	     30.59639305	     -8.35650922	     -2.67794248	     19.60979749	     19.60979749	      2.70582348	     -6.72732621	      5.21345435	     -8.80374954	      6.40424046	      3.91056278	     37.52420263	    -18.61316859	     -6.80655252	     90.57538150	     44.68842012	      0.00000000	      0.00000000	     -7.65312972	     -7.99758132	     -0.43696125	     32.57870119	     44.88613379	      0.00000000	      0.00000000
     34.54228571	     -4.53281598	     -5.78180423	      8.36870895	      1.04690320	      0.92130277	      0.44523209	      1.87455577	      4.72852380	    -18.58723827	     10.75170944	     10.75170944	     15.04005622	      0.48548132	     -6.94371191	     30.02794894	     -8.16892417	     -2.78533738	     19.89694436	     19.89694436	      2.31360508	     -7.24228076	      4.82427837	     -8.62577280	      6.35950823	      3.97112037	     36.86492180	    -18.14328324	     -6.75337067	     89.84749944	     44.71154056	      0.00000000	      0.00000000	     -7.41131652	     -8.21189028	     -0.40054799	     32.72461780	     44.89134829	      0.00000000	      0.00000000
     34.55592857	     -4.49873636	     -5.77183560	      8.24768341	      1.04814645	      0.92074703	      0.44331858	      1.42727197	      4.62252882	    -18.39886981	     10.90835319	     10.90835319	     15.29820777	      0.47663756	     -6.93519215	     29.49240704	     -8.03225524	     -2.84016403	     20.23550784	     20.23550784	      2.16775164	     -7.65856679	      4.61042049	     -8.49602133	      6.25716588	      4.02233379	     36.07660627	    -17.69590470	     -6.61246025	     89.27314179	     44.72369280	      0.00000000	      0.00000000	     -7.04139084	     -8.43844219	     -0.40596697	     32.87265329	     44.90031957	      0.00000000	      0.00000000
     34.56957143	     -4.47186407	     -5.65008921	      8.13591698	      1.04931277	      0.92033840	      0.44108830	      1.14261417	      4.32716967	    -18.15786611	     11.44280192	     11.44280192	     16.13037166	      0.39967958	     -5.43107647	     28.72386550	     -7.60144946	     -2.19401577	     19.98565237	     19.98565237	      0.47055973	     -9.79074666	      1.34004849	     -8.26443618	      6.03764568	      3.53235741	     36.15920965	    -16.51646081	     -6.95387914	     85.76201626	     44.87819244	      0.00000000	      0.00000000	     -7.02170010	     -8.78583488	      0.06145262	     33.08602894	     44.89306344	      0.00000000	      0.00000000
     34.58321429	     -4.44494330	     -5.53450546	      8.03003003	      1.05030960	      0.92008830	      0.43884223	      0.87437910	      4.02865254	    -17.93225789	     11.92143471	     11.92143471	     16.40332973	      0.14810334	     -5.28178146	     28.36431621	     -7.36486315	     -2.00703035	     20.50502355	     20.50502355	      0.58624101	    -10.46251192	      0.97947314	     -8.20125442	      5.79792507	      3.71163833	     35.09635594	    -16.51764815	     -6.81791493	     84.70684674	     44.91003927	      0.00000000	      0.00000000	     -6.47651124	     -9.00641765	      0.02713044	     33.32027171	     44.91882149	      0.00000000	      0.00000000
     34.59685714	     -4.41567361	     -5.39123460	      7.96155231	      1.05122696	      0.92005715	      0.43639563	      0.69769112	      3.67196784	    -17.66577096	     12.57933649	     12.57933649	     16.71795219	     -0.28245680	     -4.94439021	     28.03573582	     -7.06816631	     -1.67906551	     21.00031546	     21.00031546	      0.79915827	    -11.27345502	      0.68302320	     -8.12823421	      5.55693258	      3.71564748	     34.06570410	    -16.23360026	     -6.74561555	     83.21944962	     44.95928859	      0.00000000	      0.00000000	     -5.87504104	     -9.23533973	      0.04189501	     33.32239583	     44.94297768	      0.00000000	      0.00000000
     34.61050000	     -4.38997024	     -5.23783796	      7.88590666	      1.05201225	      0.92020186	      0.43379450	      0.60777864	      3.26430832	    -17.39766156	     13.37336347	     13.37336347	     16.95816076	     -0.72507299	     -4.57195569	     27.77142746	     -6.78068625	     -1.37201924	     21.55906814	     21.55906814	      1.22385217	    -11.93558123	      0.49519018	     -8.07820828	      5.30722215	      3.68093674	     33.05895272	    -16.02658454	     -6.65376238	     81.59365677	     45.01175990	      0.00000000	      0.00000000	     -5.20020202	     -9.43775122	      0.04757211	     33.24952270	     44.96919038	      0.00000000	      0.00000000
     34.62414286	     -4.32812686	     -5.07581137	      7.82113051	      1.05275154	      0.92056283	      0.43104784	      0.56105388	      2.81339828	    -17.17962923	     14.31045719	     14.31045719	     17.09655778	     -1.19707967	     -4.33531054	     27.51371333	     -6.50413938	     -1.16508640	     22.16121524	     22.16121524	      1.80961064	    -12.45205764	      0.37539153	     -8.11532583	      5.05087470	      3.67868432	     31.89243566	    -15.90943595	     -6.49565681	     80.04120224	     45.05667187	      0.00000000	      0.00000000	     -4.45479943	     -9.63202491	      0.02532374	     33.23278861	     44.99534486	      0.00000000	      0.00000000
